{
  "accessors": [
    {
      "bufferView": 2,
      "componentType": 5126,
      "count": 2304,
      "max": [
        54.499996185302734,
        50.0,
        57.99999237060547
      ],
      "min": [
        -61.16666030883789,
        -50.0,
        -57.99999237060547
      ],
      "type": "VEC3"
    },
    {
      "bufferView": 2,
      "byteOffset": 27648,
      "componentType": 5126,
      "count": 2304,
      "max": [
        1.0,
        1.0,
        1.0
      ],
      "min": [
        -0.9991748929023743,
        -1.0,
        -1.0
      ],
      "type": "VEC3"
    },
    {
      "bufferView": 1,
      "componentType": 5126,
      "count": 2304,
      "max": [
        0.8750000596046448,
        1.0
      ],
      "min": [
        0.125,
        -0.0011151395738124847
      ],
      "type": "VEC2"
    },
    {
      "bufferView": 0,
      "componentType": 5125,
      "count": 3789,
      "type": "SCALAR"
    },
    {
      "bufferView": 2,
      "byteOffset": 55296,
      "componentType": 5126,
      "count": 200,
      "max": [
        53.220855712890625,
        8.809113502502441,
        50.278961181640625
      ],
      "min": [
        -50.11502456665039,
        -49.80781555175781,
        -50.278961181640625
      ],
      "type": "VEC3"
    },
    {
      "bufferView": 2,
      "byteOffset": 57696,
      "componentType": 5126,
      "count": 200,
      "max": [
        1.0,
        0.0,
        1.0
      ],
      "min": [
        -1.0,
        -0.7205182313919067,
        -1.0
      ],
      "type": "VEC3"
    },
    {
      "bufferView": 1,
      "byteOffset": 18432,
      "componentType": 5126,
      "count": 200,
      "max": [
        0.5225000381469727,
        1.0
      ],
      "min": [
        0.375,
        0.0
      ],
      "type": "VEC2"
    },
    {
      "bufferView": 0,
      "byteOffset": 15156,
      "componentType": 5125,
      "count": 324,
      "type": "SCALAR"
    },
    {
      "bufferView": 2,
      "byteOffset": 60096,
      "componentType": 5126,
      "count": 286,
      "max": [
        23.385713577270508,
        69.28306579589844,
        56.655616760253906
      ],
      "min": [
        -61.765830993652344,
        12.692299842834473,
        -56.655616760253906
      ],
      "type": "VEC3"
    },
    {
      "bufferView": 2,
      "byteOffset": 63528,
      "componentType": 5126,
      "count": 286,
      "max": [
        0.6848787069320679,
        0.7160830497741699,
        1.0
      ],
      "min": [
        -0.987036943435669,
        -0.7296720743179321,
        -1.0
      ],
      "type": "VEC3"
    },
    {
      "bufferView": 1,
      "byteOffset": 20032,
      "componentType": 5126,
      "count": 286,
      "max": [
        0.8598669767379761,
        0.9922664165496826
      ],
      "min": [
        0.5311365127563477,
        0.007543097250163555
      ],
      "type": "VEC2"
    },
    {
      "bufferView": 0,
      "byteOffset": 16452,
      "componentType": 5125,
      "count": 420,
      "type": "SCALAR"
    },
    {
      "bufferView": 2,
      "byteOffset": 66960,
      "componentType": 5126,
      "count": 521,
      "max": [
        60.49248123168945,
        71.9073715209961,
        59.999996185302734
      ],
      "min": [
        -67.28528594970703,
        50.090904235839844,
        -59.999996185302734
      ],
      "type": "VEC3"
    },
    {
      "bufferView": 2,
      "byteOffset": 73212,
      "componentType": 5126,
      "count": 521,
      "max": [
        1.0,
        1.0,
        1.0
      ],
      "min": [
        -1.0,
        -1.0,
        -1.0
      ],
      "type": "VEC3"
    },
    {
      "bufferView": 1,
      "byteOffset": 22320,
      "componentType": 5126,
      "count": 521,
      "max": [
        0.8750000596046448,
        0.7500000596046448
      ],
      "min": [
        0.625,
        0.4999999701976776
      ],
      "type": "VEC2"
    },
    {
      "bufferView": 0,
      "byteOffset": 18132,
      "componentType": 5125,
      "count": 738,
      "type": "SCALAR"
    },
    {
      "bufferView": 2,
      "byteOffset": 79464,
      "componentType": 5126,
      "count": 88,
      "max": [
        55.623870849609375,
        44.22908401489258,
        27.69399642944336
      ],
      "min": [
        51.63022994995117,
        -47.21995162963867,
        -27.69399642944336
      ],
      "type": "VEC3"
    },
    {
      "bufferView": 2,
      "byteOffset": 80520,
      "componentType": 5126,
      "count": 88,
      "max": [
        1.0,
        1.0,
        1.0
      ],
      "min": [
        -1.0,
        -1.0,
        -1.0
      ],
      "type": "VEC3"
    },
    {
      "bufferView": 1,
      "byteOffset": 26488,
      "componentType": 5126,
      "count": 88,
      "max": [
        0.875,
        1.0
      ],
      "min": [
        0.125,
        0.0
      ],
      "type": "VEC2"
    },
    {
      "bufferView": 0,
      "byteOffset": 21084,
      "componentType": 5125,
      "count": 180,
      "type": "SCALAR"
    },
    {
      "bufferView": 2,
      "byteOffset": 81576,
      "componentType": 5126,
      "count": 72,
      "max": [
        100.0,
        233.78553771972656,
        100.0
      ],
      "min": [
        -3828.077392578125,
        -100.0,
        -100.0
      ],
      "type": "VEC3"
    },
    {
      "bufferView": 2,
      "byteOffset": 82440,
      "componentType": 5126,
      "count": 72,
      "max": [
        1.0,
        1.0,
        1.0
      ],
      "min": [
        -1.0,
        -1.0,
        -1.0
      ],
      "type": "VEC3"
    },
    {
      "bufferView": 1,
      "byteOffset": 27192,
      "componentType": 5126,
      "count": 72,
      "max": [
        0.875,
        1.0
      ],
      "min": [
        0.125,
        0.0
      ],
      "type": "VEC2"
    },
    {
      "bufferView": 0,
      "byteOffset": 21804,
      "componentType": 5125,
      "count": 108,
      "type": "SCALAR"
    },
    {
      "bufferView": 2,
      "byteOffset": 83304,
      "componentType": 5126,
      "count": 96,
      "max": [
        93.80683898925781,
        971.8997192382813,
        226.3377227783203
      ],
      "min": [
        -4058.17822265625,
        -7.054734230041504,
        -226.3369598388672
      ],
      "type": "VEC3"
    },
    {
      "bufferView": 2,
      "byteOffset": 84456,
      "componentType": 5126,
      "count": 96,
      "max": [
        1.0,
        1.0,
        1.0
      ],
      "min": [
        -1.0,
        -1.0,
        -1.0
      ],
      "type": "VEC3"
    },
    {
      "bufferView": 1,
      "byteOffset": 27768,
      "componentType": 5126,
      "count": 96,
      "max": [
        0.875,
        1.0
      ],
      "min": [
        0.125,
        0.0
      ],
      "type": "VEC2"
    },
    {
      "bufferView": 0,
      "byteOffset": 22236,
      "componentType": 5125,
      "count": 144,
      "type": "SCALAR"
    },
    {
      "bufferView": 2,
      "byteOffset": 85608,
      "componentType": 5126,
      "count": 348,
      "max": [
        -2893.13037109375,
        484.0664367675781,
        315.2059020996094
      ],
      "min": [
        -4153.080078125,
        102.77655029296875,
        -315.2063293457031
      ],
      "type": "VEC3"
    },
    {
      "bufferView": 2,
      "byteOffset": 89784,
      "componentType": 5126,
      "count": 348,
      "max": [
        0.31815943121910095,
        0.9983465075492859,
        1.0
      ],
      "min": [
        -0.3181607127189636,
        -0.9983465075492859,
        -1.0
      ],
      "type": "VEC3"
    },
    {
      "bufferView": 1,
      "byteOffset": 28536,
      "componentType": 5126,
      "count": 348,
      "max": [
        1.0,
        1.0
      ],
      "min": [
        0.0,
        0.01000000536441803
      ],
      "type": "VEC2"
    },
    {
      "bufferView": 0,
      "byteOffset": 22812,
      "componentType": 5125,
      "count": 552,
      "type": "SCALAR"
    },
    {
      "bufferView": 2,
      "byteOffset": 93960,
      "componentType": 5126,
      "count": 24,
      "max": [
        28.513717651367188,
        184.67079162597656,
        74.84840393066406
      ],
      "min": [
        -3674.3037109375,
        58.950626373291016,
        -74.84840393066406
      ],
      "type": "VEC3"
    },
    {
      "bufferView": 2,
      "byteOffset": 94248,
      "componentType": 5126,
      "count": 24,
      "max": [
        0.546072781085968,
        0.9995608925819397,
        1.0
      ],
      "min": [
        -0.5460726022720337,
        -0.9995608925819397,
        -1.0
      ],
      "type": "VEC3"
    },
    {
      "bufferView": 1,
      "byteOffset": 31320,
      "componentType": 5126,
      "count": 24,
      "max": [
        0.875,
        1.0
      ],
      "min": [
        0.125,
        0.0
      ],
      "type": "VEC2"
    },
    {
      "bufferView": 0,
      "byteOffset": 25020,
      "componentType": 5125,
      "count": 36,
      "type": "SCALAR"
    },
    {
      "bufferView": 2,
      "byteOffset": 94536,
      "componentType": 5126,
      "count": 1116,
      "max": [
        271.0483093261719,
        -8.212813377380371,
        120.76856231689453
      ],
      "min": [
        -159.21450805664063,
        -127.69025421142578,
        -122.27424621582031
      ],
      "type": "VEC3"
    },
    {
      "bufferView": 2,
      "byteOffset": 107928,
      "componentType": 5126,
      "count": 1116,
      "max": [
        1.0,
        1.0,
        1.0
      ],
      "min": [
        -0.9998970627784729,
        -0.9999022483825684,
        -1.0
      ],
      "type": "VEC3"
    },
    {
      "bufferView": 1,
      "byteOffset": 31512,
      "componentType": 5126,
      "count": 1116,
      "max": [
        1.0,
        2.0
      ],
      "min": [
        0.0,
        0.0
      ],
      "type": "VEC2"
    },
    {
      "bufferView": 0,
      "byteOffset": 25164,
      "componentType": 5125,
      "count": 1611,
      "type": "SCALAR"
    },
    {
      "bufferView": 2,
      "byteOffset": 121320,
      "componentType": 5126,
      "count": 558,
      "max": [
        271.0483093261719,
        -8.212813377380371,
        128.23822021484375
      ],
      "min": [
        -159.0841827392578,
        -49.26914978027344,
        -128.23822021484375
      ],
      "type": "VEC3"
    },
    {
      "bufferView": 2,
      "byteOffset": 128016,
      "componentType": 5126,
      "count": 558,
      "max": [
        1.0,
        1.0,
        1.0
      ],
      "min": [
        -0.9942668080329895,
        -1.0,
        -1.0
      ],
      "type": "VEC3"
    },
    {
      "bufferView": 1,
      "byteOffset": 40440,
      "componentType": 5126,
      "count": 558,
      "max": [
        0.7812498807907104,
        1.0
      ],
      "min": [
        0.21874994039535522,
        0.12500005960464478
      ],
      "type": "VEC2"
    },
    {
      "bufferView": 0,
      "byteOffset": 31608,
      "componentType": 5125,
      "count": 843,
      "type": "SCALAR"
    },
    {
      "bufferView": 2,
      "byteOffset": 134712,
      "componentType": 5126,
      "count": 48,
      "max": [
        36.83772659301758,
        102.89961242675781,
        -21.540729522705078
      ],
      "min": [
        35.74959182739258,
        59.46613693237305,
        -23.303516387939453
      ],
      "type": "VEC3"
    },
    {
      "bufferView": 2,
      "byteOffset": 135288,
      "componentType": 5126,
      "count": 48,
      "max": [
        0.9688323736190796,
        1.0,
        0.8303767442703247
      ],
      "min": [
        -0.9688336849212646,
        -1.0,
        -0.8303767442703247
      ],
      "type": "VEC3"
    },
    {
      "bufferView": 1,
      "byteOffset": 44904,
      "componentType": 5126,
      "count": 48,
      "max": [
        1.0,
        1.0
      ],
      "min": [
        0.0,
        0.01000000536441803
      ],
      "type": "VEC2"
    },
    {
      "bufferView": 0,
      "byteOffset": 34980,
      "componentType": 5125,
      "count": 84,
      "type": "SCALAR"
    },
    {
      "bufferView": 2,
      "byteOffset": 135864,
      "componentType": 5126,
      "count": 352,
      "max": [
        37.79435348510742,
        107.58325958251953,
        -22.761167526245117
      ],
      "min": [
        31.753053665161133,
        58.805973052978516,
        -32.548072814941406
      ],
      "type": "VEC3"
    },
    {
      "bufferView": 2,
      "byteOffset": 140088,
      "componentType": 5126,
      "count": 352,
      "max": [
        0.9868621230125427,
        1.0,
        0.918782651424408
      ],
      "min": [
        -0.9868618845939636,
        -1.0,
        -0.9187833070755005
      ],
      "type": "VEC3"
    },
    {
      "bufferView": 1,
      "byteOffset": 45288,
      "componentType": 5126,
      "count": 352,
      "max": [
        1.0,
        1.0
      ],
      "min": [
        0.0,
        0.01000000536441803
      ],
      "type": "VEC2"
    },
    {
      "bufferView": 0,
      "byteOffset": 35316,
      "componentType": 5125,
      "count": 546,
      "type": "SCALAR"
    },
    {
      "bufferView": 2,
      "byteOffset": 144312,
      "componentType": 5126,
      "count": 136,
      "max": [
        50.792484283447266,
        155.71051025390625,
        -23.92490005493164
      ],
      "min": [
        34.098262786865234,
        107.58325958251953,
        -28.748836517333984
      ],
      "type": "VEC3"
    },
    {
      "bufferView": 2,
      "byteOffset": 145944,
      "componentType": 5126,
      "count": 136,
      "max": [
        0.9861252307891846,
        1.0,
        0.918767511844635
      ],
      "min": [
        -0.9837420582771301,
        -0.7316554188728333,
        -0.9166727662086487
      ],
      "type": "VEC3"
    },
    {
      "bufferView": 1,
      "byteOffset": 48104,
      "componentType": 5126,
      "count": 136,
      "max": [
        0.30366599559783936,
        0.30366599559783936
      ],
      "min": [
        0.19633403420448303,
        0.19633403420448303
      ],
      "type": "VEC2"
    },
    {
      "bufferView": 0,
      "byteOffset": 37500,
      "componentType": 5125,
      "count": 210,
      "type": "SCALAR"
    },
    {
      "bufferView": 2,
      "byteOffset": 147576,
      "componentType": 5126,
      "count": 332,
      "max": [
        48.50788116455078,
        83.72052001953125,
        30.62024688720703
      ],
      "min": [
        45.56549835205078,
        59.96380615234375,
        25.853586196899414
      ],
      "type": "VEC3"
    },
    {
      "bufferView": 2,
      "byteOffset": 151560,
      "componentType": 5126,
      "count": 332,
      "max": [
        0.9868621230125427,
        1.0,
        0.9187834858894348
      ],
      "min": [
        -0.9868621230125427,
        -1.0,
        -0.9187834858894348
      ],
      "type": "VEC3"
    },
    {
      "bufferView": 1,
      "byteOffset": 49192,
      "componentType": 5126,
      "count": 332,
      "max": [
        1.0,
        1.0
      ],
      "min": [
        0.0,
        0.01000000536441803
      ],
      "type": "VEC2"
    },
    {
      "bufferView": 0,
      "byteOffset": 38340,
      "componentType": 5125,
      "count": 546,
      "type": "SCALAR"
    },
    {
      "bufferView": 2,
      "byteOffset": 155544,
      "componentType": 5126,
      "count": 136,
      "max": [
        54.83855056762695,
        107.16062927246094,
        30.053457260131836
      ],
      "min": [
        46.70771789550781,
        83.72052001953125,
        27.7039852142334
      ],
      "type": "VEC3"
    },
    {
      "bufferView": 2,
      "byteOffset": 157176,
      "componentType": 5126,
      "count": 136,
      "max": [
        0.9861245155334473,
        1.0,
        0.9187613725662231
      ],
      "min": [
        -0.9837443232536316,
        -0.7316444516181946,
        -0.9166662693023682
      ],
      "type": "VEC3"
    },
    {
      "bufferView": 1,
      "byteOffset": 51848,
      "componentType": 5126,
      "count": 136,
      "max": [
        0.30366599559783936,
        0.30366599559783936
      ],
      "min": [
        0.19633403420448303,
        0.19633403420448303
      ],
      "type": "VEC2"
    },
    {
      "bufferView": 0,
      "byteOffset": 40524,
      "componentType": 5125,
      "count": 210,
      "type": "SCALAR"
    },
    {
      "bufferView": 2,
      "byteOffset": 158808,
      "componentType": 5126,
      "count": 240,
      "max": [
        242.70091247558594,
        93.78816986083984,
        55.870784759521484
      ],
      "min": [
        53.07354736328125,
        31.991962432861328,
        -1.9767963886260986
      ],
      "type": "VEC3"
    },
    {
      "bufferView": 2,
      "byteOffset": 161688,
      "componentType": 5126,
      "count": 240,
      "max": [
        0.8927829265594482,
        0.9985011219978333,
        0.9965753555297852
      ],
      "min": [
        -0.895975649356842,
        -0.9984188079833984,
        -0.996800422668457
      ],
      "type": "VEC3"
    },
    {
      "bufferView": 1,
      "byteOffset": 52936,
      "componentType": 5126,
      "count": 240,
      "max": [
        1.0,
        1.0
      ],
      "min": [
        0.0,
        0.0
      ],
      "type": "VEC2"
    },
    {
      "bufferView": 0,
      "byteOffset": 41364,
      "componentType": 5125,
      "count": 1128,
      "type": "SCALAR"
    },
    {
      "bufferView": 2,
      "byteOffset": 164568,
      "componentType": 5126,
      "count": 240,
      "max": [
        242.85107421875,
        93.35946655273438,
        47.619808197021484
      ],
      "min": [
        48.76749038696289,
        -50.46646499633789,
        -1.976550579071045
      ],
      "type": "VEC3"
    },
    {
      "bufferView": 2,
      "byteOffset": 167448,
      "componentType": 5126,
      "count": 240,
      "max": [
        0.9555324912071228,
        0.9556597471237183,
        0.9993402361869812
      ],
      "min": [
        -0.957738995552063,
        -0.9555670022964478,
        -0.9991986155509949
      ],
      "type": "VEC3"
    },
    {
      "bufferView": 1,
      "byteOffset": 54856,
      "componentType": 5126,
      "count": 240,
      "max": [
        1.0,
        1.0
      ],
      "min": [
        0.0,
        0.0
      ],
      "type": "VEC2"
    },
    {
      "bufferView": 0,
      "byteOffset": 45876,
      "componentType": 5125,
      "count": 1128,
      "type": "SCALAR"
    },
    {
      "bufferView": 2,
      "byteOffset": 170328,
      "componentType": 5126,
      "count": 96,
      "max": [
        198.68052673339844,
        -45.24763107299805,
        142.03651428222656
      ],
      "min": [
        180.69363403320313,
        -90.87623596191406,
        113.9862060546875
      ],
      "type": "VEC3"
    },
    {
      "bufferView": 2,
      "byteOffset": 171480,
      "componentType": 5126,
      "count": 96,
      "max": [
        1.0,
        0.9949085116386414,
        0.9925717711448669
      ],
      "min": [
        -1.0,
        -0.9949084520339966,
        -0.9925717711448669
      ],
      "type": "VEC3"
    },
    {
      "bufferView": 1,
      "byteOffset": 56776,
      "componentType": 5126,
      "count": 96,
      "max": [
        0.8337500691413879,
        0.9587500691413879
      ],
      "min": [
        0.125,
        0.0
      ],
      "type": "VEC2"
    },
    {
      "bufferView": 0,
      "byteOffset": 50388,
      "componentType": 5125,
      "count": 132,
      "type": "SCALAR"
    },
    {
      "bufferView": 2,
      "byteOffset": 172632,
      "componentType": 5126,
      "count": 96,
      "max": [
        222.06077575683594,
        -45.24763107299805,
        142.6402587890625
      ],
      "min": [
        204.07391357421875,
        -90.87623596191406,
        114.58995056152344
      ],
      "type": "VEC3"
    },
    {
      "bufferView": 2,
      "byteOffset": 173784,
      "componentType": 5126,
      "count": 96,
      "max": [
        1.0,
        0.9949084520339966,
        0.9925717711448669
      ],
      "min": [
        -1.0,
        -0.9949084520339966,
        -0.9925718307495117
      ],
      "type": "VEC3"
    },
    {
      "bufferView": 1,
      "byteOffset": 57544,
      "componentType": 5126,
      "count": 96,
      "max": [
        0.8337500691413879,
        0.9587500691413879
      ],
      "min": [
        0.125,
        0.0
      ],
      "type": "VEC2"
    },
    {
      "bufferView": 0,
      "byteOffset": 50916,
      "componentType": 5125,
      "count": 132,
      "type": "SCALAR"
    },
    {
      "bufferView": 2,
      "byteOffset": 174936,
      "componentType": 5126,
      "count": 96,
      "max": [
        198.68052673339844,
        -45.32141876220703,
        -114.65046691894531
      ],
      "min": [
        180.69363403320313,
        -90.95002746582031,
        -142.70079040527344
      ],
      "type": "VEC3"
    },
    {
      "bufferView": 2,
      "byteOffset": 176088,
      "componentType": 5126,
      "count": 96,
      "max": [
        1.0,
        0.9949084520339966,
        0.9925717115402222
      ],
      "min": [
        -1.0,
        -0.9949084520339966,
        -0.9925717711448669
      ],
      "type": "VEC3"
    },
    {
      "bufferView": 1,
      "byteOffset": 58312,
      "componentType": 5126,
      "count": 96,
      "max": [
        0.8337500691413879,
        0.9587500691413879
      ],
      "min": [
        0.125,
        0.0
      ],
      "type": "VEC2"
    },
    {
      "bufferView": 0,
      "byteOffset": 51444,
      "componentType": 5125,
      "count": 132,
      "type": "SCALAR"
    },
    {
      "bufferView": 2,
      "byteOffset": 177240,
      "componentType": 5126,
      "count": 96,
      "max": [
        222.06080627441406,
        -45.17384719848633,
        -115.23199462890625
      ],
      "min": [
        204.07388305664063,
        -90.80245208740234,
        -143.28228759765625
      ],
      "type": "VEC3"
    },
    {
      "bufferView": 2,
      "byteOffset": 178392,
      "componentType": 5126,
      "count": 96,
      "max": [
        1.0,
        0.9949085116386414,
        0.9925717711448669
      ],
      "min": [
        -1.0,
        -0.9949084520339966,
        -0.9925717115402222
      ],
      "type": "VEC3"
    },
    {
      "bufferView": 1,
      "byteOffset": 59080,
      "componentType": 5126,
      "count": 96,
      "max": [
        0.8337500691413879,
        0.9587500691413879
      ],
      "min": [
        0.125,
        0.0
      ],
      "type": "VEC2"
    },
    {
      "bufferView": 0,
      "byteOffset": 51972,
      "componentType": 5125,
      "count": 132,
      "type": "SCALAR"
    },
    {
      "bufferView": 2,
      "byteOffset": 179544,
      "componentType": 5126,
      "count": 96,
      "max": [
        44.06620407104492,
        64.83777618408203,
        19.993337631225586
      ],
      "min": [
        21.830219268798828,
        58.86989974975586,
        -10.832181930541992
      ],
      "type": "VEC3"
    },
    {
      "bufferView": 2,
      "byteOffset": 180696,
      "componentType": 5126,
      "count": 96,
      "max": [
        1.0,
        1.0,
        1.0
      ],
      "min": [
        -1.0,
        -1.0,
        -1.0
      ],
      "type": "VEC3"
    },
    {
      "bufferView": 1,
      "byteOffset": 59848,
      "componentType": 5126,
      "count": 96,
      "max": [
        0.8487499952316284,
        0.9737499952316284
      ],
      "min": [
        0.125,
        0.0
      ],
      "type": "VEC2"
    },
    {
      "bufferView": 0,
      "byteOffset": 52500,
      "componentType": 5125,
      "count": 132,
      "type": "SCALAR"
    },
    {
      "bufferView": 2,
      "byteOffset": 181848,
      "componentType": 5126,
      "count": 112,
      "max": [
        268.97265625,
        -98.73405456542969,
        7.164217472076416
      ],
      "min": [
        237.6125030517578,
        -111.75990295410156,
        -7.164214611053467
      ],
      "type": "VEC3"
    },
    {
      "bufferView": 2,
      "byteOffset": 183192,
      "componentType": 5126,
      "count": 112,
      "max": [
        1.0,
        0.9358500242233276,
        0.9099928140640259
      ],
      "min": [
        -1.0,
        -0.935848593711853,
        -0.9099928140640259
      ],
      "type": "VEC3"
    },
    {
      "bufferView": 1,
      "byteOffset": 60616,
      "componentType": 5126,
      "count": 112,
      "max": [
        1.0,
        1.0
      ],
      "min": [
        0.0,
        0.01000000536441803
      ],
      "type": "VEC2"
    },
    {
      "bufferView": 0,
      "byteOffset": 53028,
      "componentType": 5125,
      "count": 180,
      "type": "SCALAR"
    },
    {
      "bufferView": 2,
      "byteOffset": 184536,
      "componentType": 5126,
      "count": 96,
      "max": [
        -45.28139114379883,
        89.354736328125,
        10.607778549194336
      ],
      "min": [
        -64.9787368774414,
        79.31999206542969,
        -10.607775688171387
      ],
      "type": "VEC3"
    },
    {
      "bufferView": 2,
      "byteOffset": 185688,
      "componentType": 5126,
      "count": 96,
      "max": [
        1.0,
        1.0,
        1.0
      ],
      "min": [
        -1.0,
        -1.0,
        -1.0
      ],
      "type": "VEC3"
    },
    {
      "bufferView": 1,
      "byteOffset": 61512,
      "componentType": 5126,
      "count": 96,
      "max": [
        0.8225000500679016,
        0.9475001096725464
      ],
      "min": [
        0.125,
        0.0
      ],
      "type": "VEC2"
    },
    {
      "bufferView": 0,
      "byteOffset": 53748,
      "componentType": 5125,
      "count": 132,
      "type": "SCALAR"
    },
    {
      "bufferView": 2,
      "byteOffset": 186840,
      "componentType": 5126,
      "count": 24,
      "max": [
        -31.80471420288086,
        83.93987274169922,
        3.3892691135406494
      ],
      "min": [
        -48.513187408447266,
        67.03813934326172,
        -3.389266014099121
      ],
      "type": "VEC3"
    },
    {
      "bufferView": 2,
      "byteOffset": 187128,
      "componentType": 5126,
      "count": 24,
      "max": [
        0.9316113591194153,
        0.7633776068687439,
        1.0
      ],
      "min": [
        -0.9316113591194153,
        -0.7633776664733887,
        -1.0
      ],
      "type": "VEC3"
    },
    {
      "bufferView": 1,
      "byteOffset": 62280,
      "componentType": 5126,
      "count": 24,
      "max": [
        0.875,
        1.0
      ],
      "min": [
        0.125,
        0.0
      ],
      "type": "VEC2"
    },
    {
      "bufferView": 0,
      "byteOffset": 54276,
      "componentType": 5125,
      "count": 36,
      "type": "SCALAR"
    },
    {
      "bufferView": 2,
      "byteOffset": 187416,
      "componentType": 5126,
      "count": 24,
      "max": [
        -29.420583724975586,
        72.15569305419922,
        6.929349899291992
      ],
      "min": [
        -40.65394973754883,
        62.12095642089844,
        -6.929347038269043
      ],
      "type": "VEC3"
    },
    {
      "bufferView": 2,
      "byteOffset": 187704,
      "componentType": 5126,
      "count": 24,
      "max": [
        1.0,
        1.0,
        1.0
      ],
      "min": [
        -1.0,
        -1.0,
        -1.0
      ],
      "type": "VEC3"
    },
    {
      "bufferView": 1,
      "byteOffset": 62472,
      "componentType": 5126,
      "count": 24,
      "max": [
        0.875,
        1.0
      ],
      "min": [
        0.125,
        0.0
      ],
      "type": "VEC2"
    },
    {
      "bufferView": 0,
      "byteOffset": 54420,
      "componentType": 5125,
      "count": 36,
      "type": "SCALAR"
    },
    {
      "bufferView": 2,
      "byteOffset": 187992,
      "componentType": 5126,
      "count": 62,
      "max": [
        269.7657470703125,
        -85.30408477783203,
        4.766199588775635
      ],
      "min": [
        269.04718017578125,
        -104.93891143798828,
        -7.0664801597595215
      ],
      "type": "VEC3"
    },
    {
      "bufferView": 2,
      "byteOffset": 188736,
      "componentType": 5126,
      "count": 62,
      "max": [
        1.0,
        0.8515345454216003,
        0.9922393560409546
      ],
      "min": [
        -1.0,
        -1.0,
        -0.9999970197677612
      ],
      "type": "VEC3"
    },
    {
      "bufferView": 1,
      "byteOffset": 62664,
      "componentType": 5126,
      "count": 62,
      "max": [
        0.875,
        1.0
      ],
      "min": [
        0.125,
        0.0
      ],
      "type": "VEC2"
    },
    {
      "bufferView": 0,
      "byteOffset": 54564,
      "componentType": 5125,
      "count": 108,
      "type": "SCALAR"
    },
    {
      "bufferView": 2,
      "byteOffset": 189480,
      "componentType": 5126,
      "count": 68,
      "max": [
        269.7820739746094,
        -101.31652069091797,
        2.818547487258911
      ],
      "min": [
        269.0635070800781,
        -120.96099853515625,
        -14.238306999206543
      ],
      "type": "VEC3"
    },
    {
      "bufferView": 2,
      "byteOffset": 190296,
      "componentType": 5126,
      "count": 68,
      "max": [
        1.0,
        0.7939194440841675,
        0.933175802230835
      ],
      "min": [
        -1.0,
        -0.9065998196601868,
        -0.9999546408653259
      ],
      "type": "VEC3"
    },
    {
      "bufferView": 1,
      "byteOffset": 63160,
      "componentType": 5126,
      "count": 68,
      "max": [
        0.875,
        1.0
      ],
      "min": [
        0.125,
        0.0
      ],
      "type": "VEC2"
    },
    {
      "bufferView": 0,
      "byteOffset": 54996,
      "componentType": 5125,
      "count": 108,
      "type": "SCALAR"
    },
    {
      "bufferView": 2,
      "byteOffset": 191112,
      "componentType": 5126,
      "count": 72,
      "max": [
        269.8134765625,
        -100.73297882080078,
        22.40658187866211
      ],
      "min": [
        269.09490966796875,
        -111.81562042236328,
        -2.0773043632507324
      ],
      "type": "VEC3"
    },
    {
      "bufferView": 2,
      "byteOffset": 191976,
      "componentType": 5126,
      "count": 72,
      "max": [
        1.0,
        0.9958664178848267,
        0.49370041489601135
      ],
      "min": [
        -1.0,
        -0.9974750280380249,
        -0.8856490850448608
      ],
      "type": "VEC3"
    },
    {
      "bufferView": 1,
      "byteOffset": 63704,
      "componentType": 5126,
      "count": 72,
      "max": [
        0.875,
        1.0
      ],
      "min": [
        0.125,
        0.0
      ],
      "type": "VEC2"
    },
    {
      "bufferView": 0,
      "byteOffset": 55428,
      "componentType": 5125,
      "count": 108,
      "type": "SCALAR"
    },
    {
      "bufferView": 2,
      "byteOffset": 192840,
      "componentType": 5126,
      "count": 112,
      "max": [
        270.2029724121094,
        -100.01954650878906,
        5.366079330444336
      ],
      "min": [
        268.0814208984375,
        -109.76717376708984,
        -5.369088172912598
      ],
      "type": "VEC3"
    },
    {
      "bufferView": 2,
      "byteOffset": 194184,
      "componentType": 5126,
      "count": 112,
      "max": [
        0.9999722838401794,
        0.9449634552001953,
        0.922152578830719
      ],
      "min": [
        -0.9999723434448242,
        -0.9449628591537476,
        -0.9221464991569519
      ],
      "type": "VEC3"
    },
    {
      "bufferView": 1,
      "byteOffset": 64280,
      "componentType": 5126,
      "count": 112,
      "max": [
        1.0,
        1.0
      ],
      "min": [
        0.0,
        0.01000000536441803
      ],
      "type": "VEC2"
    },
    {
      "bufferView": 0,
      "byteOffset": 55860,
      "componentType": 5125,
      "count": 180,
      "type": "SCALAR"
    }
  ],
  "asset": {
    "extras": {
      "author": "liborv (https://sketchfab.com/liborv)",
      "license": "SKETCHFAB Standard (https://sketchfab.com/licenses)",
      "source": "https://sketchfab.com/3d-models/fishing-boat-low-poly-style-baa31e28e0de40d0a9c1a95133b28545",
      "title": "Fishing Boat (low poly style)"
    },
    "generator": "Sketchfab-16.72.0",
    "version": "2.0"
  },
  "bufferViews": [
    {
      "buffer": 0,
      "byteLength": 56580,
      "name": "floatBufferViews",
      "target": 34963
    },
    {
      "buffer": 0,
      "byteLength": 65176,
      "byteOffset": 56580,
      "byteStride": 8,
      "name": "floatBufferViews",
      "target": 34962
    },
    {
      "buffer": 0,
      "byteLength": 195528,
      "byteOffset": 121756,
      "byteStride": 12,
      "name": "floatBufferViews",
      "target": 34962
    }
  ],
  "buffers": [
    {
      "byteLength": 317284,
      "uri": "poly_boat.bin"
    }
  ],
  "materials": [
    {
      "doubleSided": true,
      "name": "Material.003",
      "pbrMetallicRoughness": {
        "baseColorFactor": [
          0.381324,
          0.381326,
          0.381326,
          1.0
        ],
        "metallicFactor": 0.0,
        "roughnessFactor": 0.9460724200438124
      }
    },
    {
      "doubleSided": true,
      "name": "Material.016",
      "pbrMetallicRoughness": {
        "baseColorFactor": [
          0.0971988,
          0.0971998,
          0.0971999,
          1.0
        ],
        "metallicFactor": 0.0,
        "roughnessFactor": 0.9782655099044257
      }
    },
    {
      "doubleSided": true,
      "name": "Material.005",
      "pbrMetallicRoughness": {
        "baseColorFactor": [
          0.0129829,
          0.0497066,
          0.0781874,
          1.0
        ],
        "metallicFactor": 0.0,
        "roughnessFactor": 0.9861000646168244
      }
    },
    {
      "doubleSided": true,
      "name": "Material.015",
      "pbrMetallicRoughness": {
        "baseColorFactor": [
          0.293219,
          0.293222,
          0.293222,
          1.0
        ],
        "metallicFactor": 0.0,
        "roughnessFactor": 0.9344337101665713
      }
    },
    {
      "doubleSided": true,
      "name": "Material.001",
      "pbrMetallicRoughness": {
        "baseColorFactor": [
          0.0423111,
          0.0423115,
          0.0423114,
          1.0
        ],
        "metallicFactor": 0.0,
        "roughnessFactor": 0.9926714492054557
      }
    },
    {
      "doubleSided": true,
      "name": "Material.011",
      "pbrMetallicRoughness": {
        "baseColorFactor": [
          0.0241575,
          0.0241576,
          0.0241576,
          1.0
        ],
        "metallicFactor": 0.0,
        "roughnessFactor": 0.9965836024511796
      }
    },
    {
      "doubleSided": true,
      "name": "Material.008",
      "pbrMetallicRoughness": {
        "baseColorFactor": [
          0.132867,
          0.13286800000000001,
          0.13286800000000001,
          1.0
        ],
        "metallicFactor": 0.0,
        "roughnessFactor": 0.976986624153394
      }
    },
    {
      "doubleSided": true,
      "name": "Material.010",
      "pbrMetallicRoughness": {
        "baseColorFactor": [
          0.27,
          0.0793282,
          0.05184,
          1.0
        ],
        "metallicFactor": 0.0,
        "roughnessFactor": 0.9795825198444165
      }
    },
    {
      "doubleSided": true,
      "name": "Material.007",
      "pbrMetallicRoughness": {
        "baseColorFactor": [
          0.488,
          0.478569,
          0.388448,
          1.0
        ],
        "metallicFactor": 0.0,
        "roughnessFactor": 0.9329567602782001
      }
    },
    {
      "doubleSided": true,
      "name": "Material.002",
      "pbrMetallicRoughness": {
        "baseColorFactor": [
          0.219525,
          0.114435,
          0.0497066,
          1.0
        ],
        "metallicFactor": 0.0,
        "roughnessFactor": 0.981317709427376
      }
    },
    {
      "doubleSided": true,
      "name": "Material.006",
      "pbrMetallicRoughness": {
        "baseColorFactor": [
          0.0144437,
          0.0144439,
          0.0144438,
          1.0
        ],
        "metallicFactor": 0.0,
        "roughnessFactor": 0.9979573311069422
      }
    },
    {
      "doubleSided": true,
      "name": "Material.004",
      "pbrMetallicRoughness": {
        "baseColorFactor": [
          0.8,
          0.8,
          0.8,
          1.0
        ],
        "metallicFactor": 0.0,
        "roughnessFactor": 0.8614359353944898
      }
    },
    {
      "doubleSided": true,
      "name": "Material.014",
      "pbrMetallicRoughness": {
        "baseColorFactor": [
          0.17144,
          0.0451863,
          0.0273209,
          1.0
        ],
        "metallicFactor": 0.0,
        "roughnessFactor": 0.9899961425032158
      }
    }
  ],
  "meshes": [
    {
      "name": "Bouda_Material.003_0",
      "primitives": [
        {
          "attributes": {
            "NORMAL": 1,
            "POSITION": 0,
            "TEXCOORD_0": 2
          },
          "indices": 3,
          "material": 0,
          "mode": 4
        }
      ]
    },
    {
      "name": "Bouda_Material.016_0",
      "primitives": [
        {
          "attributes": {
            "NORMAL": 5,
            "POSITION": 4,
            "TEXCOORD_0": 6
          },
          "indices": 7,
          "material": 1,
          "mode": 4
        }
      ]
    },
    {
      "name": "Bouda_Material.005_0",
      "primitives": [
        {
          "attributes": {
            "NORMAL": 9,
            "POSITION": 8,
            "TEXCOORD_0": 10
          },
          "indices": 11,
          "material": 2,
          "mode": 4
        }
      ]
    },
    {
      "name": "Bouda_Material.015_0",
      "primitives": [
        {
          "attributes": {
            "NORMAL": 13,
            "POSITION": 12,
            "TEXCOORD_0": 14
          },
          "indices": 15,
          "material": 3,
          "mode": 4
        }
      ]
    },
    {
      "name": "Bouda_Material.001_0",
      "primitives": [
        {
          "attributes": {
            "NORMAL": 17,
            "POSITION": 16,
            "TEXCOORD_0": 18
          },
          "indices": 19,
          "material": 4,
          "mode": 4
        }
      ]
    },
    {
      "name": "Hook_Material.011_0",
      "primitives": [
        {
          "attributes": {
            "NORMAL": 21,
            "POSITION": 20,
            "TEXCOORD_0": 22
          },
          "indices": 23,
          "material": 5,
          "mode": 4
        }
      ]
    },
    {
      "name": "Hook_Material.008_0",
      "primitives": [
        {
          "attributes": {
            "NORMAL": 25,
            "POSITION": 24,
            "TEXCOORD_0": 26
          },
          "indices": 27,
          "material": 6,
          "mode": 4
        }
      ]
    },
    {
      "name": "Hook_Material.010_0",
      "primitives": [
        {
          "attributes": {
            "NORMAL": 29,
            "POSITION": 28,
            "TEXCOORD_0": 30
          },
          "indices": 31,
          "material": 7,
          "mode": 4
        }
      ]
    },
    {
      "name": "Hook_Material.007_0",
      "primitives": [
        {
          "attributes": {
            "NORMAL": 33,
            "POSITION": 32,
            "TEXCOORD_0": 34
          },
          "indices": 35,
          "material": 8,
          "mode": 4
        }
      ]
    },
    {
      "name": "Ship.001_Material.001_0",
      "primitives": [
        {
          "attributes": {
            "NORMAL": 37,
            "POSITION": 36,
            "TEXCOORD_0": 38
          },
          "indices": 39,
          "material": 4,
          "mode": 4
        }
      ]
    },
    {
      "name": "Ship.001_Material.002_0",
      "primitives": [
        {
          "attributes": {
            "NORMAL": 41,
            "POSITION": 40,
            "TEXCOORD_0": 42
          },
          "indices": 43,
          "material": 9,
          "mode": 4
        }
      ]
    },
    {
      "name": "Ship.004_Material.003_0",
      "primitives": [
        {
          "attributes": {
            "NORMAL": 45,
            "POSITION": 44,
            "TEXCOORD_0": 46
          },
          "indices": 47,
          "material": 0,
          "mode": 4
        }
      ]
    },
    {
      "name": "Ship.005_Material.006_0",
      "primitives": [
        {
          "attributes": {
            "NORMAL": 49,
            "POSITION": 48,
            "TEXCOORD_0": 50
          },
          "indices": 51,
          "material": 10,
          "mode": 4
        }
      ]
    },
    {
      "name": "Ship.005_Material.004_0",
      "primitives": [
        {
          "attributes": {
            "NORMAL": 53,
            "POSITION": 52,
            "TEXCOORD_0": 54
          },
          "indices": 55,
          "material": 11,
          "mode": 4
        }
      ]
    },
    {
      "name": "Ship.006_Material.006_0",
      "primitives": [
        {
          "attributes": {
            "NORMAL": 57,
            "POSITION": 56,
            "TEXCOORD_0": 58
          },
          "indices": 59,
          "material": 10,
          "mode": 4
        }
      ]
    },
    {
      "name": "Ship.006_Material.004_0",
      "primitives": [
        {
          "attributes": {
            "NORMAL": 61,
            "POSITION": 60,
            "TEXCOORD_0": 62
          },
          "indices": 63,
          "material": 11,
          "mode": 4
        }
      ]
    },
    {
      "name": "Ship.007_Material.007_0",
      "primitives": [
        {
          "attributes": {
            "NORMAL": 65,
            "POSITION": 64,
            "TEXCOORD_0": 66
          },
          "indices": 67,
          "material": 8,
          "mode": 4
        }
      ]
    },
    {
      "name": "Ship.008_Material.007_0",
      "primitives": [
        {
          "attributes": {
            "NORMAL": 69,
            "POSITION": 68,
            "TEXCOORD_0": 70
          },
          "indices": 71,
          "material": 8,
          "mode": 4
        }
      ]
    },
    {
      "name": "Ship.009_Material.014_0",
      "primitives": [
        {
          "attributes": {
            "NORMAL": 73,
            "POSITION": 72,
            "TEXCOORD_0": 74
          },
          "indices": 75,
          "material": 12,
          "mode": 4
        }
      ]
    },
    {
      "name": "Ship.010_Material.014_0",
      "primitives": [
        {
          "attributes": {
            "NORMAL": 77,
            "POSITION": 76,
            "TEXCOORD_0": 78
          },
          "indices": 79,
          "material": 12,
          "mode": 4
        }
      ]
    },
    {
      "name": "Ship.011_Material.014_0",
      "primitives": [
        {
          "attributes": {
            "NORMAL": 81,
            "POSITION": 80,
            "TEXCOORD_0": 82
          },
          "indices": 83,
          "material": 12,
          "mode": 4
        }
      ]
    },
    {
      "name": "Ship.012_Material.014_0",
      "primitives": [
        {
          "attributes": {
            "NORMAL": 85,
            "POSITION": 84,
            "TEXCOORD_0": 86
          },
          "indices": 87,
          "material": 12,
          "mode": 4
        }
      ]
    },
    {
      "name": "Ship.013_Material.006_0",
      "primitives": [
        {
          "attributes": {
            "NORMAL": 89,
            "POSITION": 88,
            "TEXCOORD_0": 90
          },
          "indices": 91,
          "material": 10,
          "mode": 4
        }
      ]
    },
    {
      "name": "Ship.014_Material.014_0",
      "primitives": [
        {
          "attributes": {
            "NORMAL": 93,
            "POSITION": 92,
            "TEXCOORD_0": 94
          },
          "indices": 95,
          "material": 12,
          "mode": 4
        }
      ]
    },
    {
      "name": "Ship.015_Material.004_0",
      "primitives": [
        {
          "attributes": {
            "NORMAL": 97,
            "POSITION": 96,
            "TEXCOORD_0": 98
          },
          "indices": 99,
          "material": 11,
          "mode": 4
        }
      ]
    },
    {
      "name": "Ship.016_Material.003_0",
      "primitives": [
        {
          "attributes": {
            "NORMAL": 101,
            "POSITION": 100,
            "TEXCOORD_0": 102
          },
          "indices": 103,
          "material": 0,
          "mode": 4
        }
      ]
    },
    {
      "name": "Ship.017_Material.003_0",
      "primitives": [
        {
          "attributes": {
            "NORMAL": 105,
            "POSITION": 104,
            "TEXCOORD_0": 106
          },
          "indices": 107,
          "material": 0,
          "mode": 4
        }
      ]
    },
    {
      "name": "Ship.018_Material.014_0",
      "primitives": [
        {
          "attributes": {
            "NORMAL": 109,
            "POSITION": 108,
            "TEXCOORD_0": 110
          },
          "indices": 111,
          "material": 12,
          "mode": 4
        }
      ]
    },
    {
      "name": "Ship.019_Material.014_0",
      "primitives": [
        {
          "attributes": {
            "NORMAL": 113,
            "POSITION": 112,
            "TEXCOORD_0": 114
          },
          "indices": 115,
          "material": 12,
          "mode": 4
        }
      ]
    },
    {
      "name": "Ship.020_Material.014_0",
      "primitives": [
        {
          "attributes": {
            "NORMAL": 117,
            "POSITION": 116,
            "TEXCOORD_0": 118
          },
          "indices": 119,
          "material": 12,
          "mode": 4
        }
      ]
    },
    {
      "name": "Ship.021_Material.014_0",
      "primitives": [
        {
          "attributes": {
            "NORMAL": 121,
            "POSITION": 120,
            "TEXCOORD_0": 122
          },
          "indices": 123,
          "material": 12,
          "mode": 4
        }
      ]
    }
  ],
  "nodes": [
    {
      "children": [
        1
      ],
      "matrix": [
        1.0,
        0.0,
        0.0,
        0.0,
        0.0,
        2.220446049250313e-16,
        -1.0,
        0.0,
        0.0,
        1.0,
        2.220446049250313e-16,
        0.0,
        0.0,
        0.0,
        0.0,
        1.0
      ],
      "name": "Sketchfab_model"
    },
    {
      "children": [
        2
      ],
      "matrix": [
        0.009999999776482582,
        0.0,
        0.0,
        0.0,
        0.0,
        0.0,
        0.009999999776482582,
        0.0,
        0.0,
        -0.009999999776482582,
        0.0,
        0.0,
        0.0,
        0.0,
        0.0,
        1.0
      ],
      "name": "5c4d076a18b441e59913a8952963bdf7.fbx"
    },
    {
      "children": [
        3,
        9,
        14,
        17,
        19,
        22,
        25,
        27,
        29,
        31,
        33,
        35,
        37,
        39,
        41,
        43,
        45,
        47,
        49,
        51,
        53
      ],
      "name": "RootNode"
    },
    {
      "children": [
        4,
        5,
        6,
        7,
        8
      ],
      "matrix": [
        1.7350196838378906,
        0.0,
        0.0,
        0.0,
        0.0,
        1.1780999898910522,
        0.0,
        0.0,
        0.0,
        0.0,
        1.0709998607635498,
        0.0,
        -134.31504821777344,
        142.330810546875,
        -1.5832483768463135e-06,
        1.0
      ],
      "name": "Bouda"
    },
    {
      "mesh": 0,
      "name": "Bouda_Material.003_0"
    },
    {
      "mesh": 1,
      "name": "Bouda_Material.016_0"
    },
    {
      "mesh": 2,
      "name": "Bouda_Material.005_0"
    },
    {
      "mesh": 3,
      "name": "Bouda_Material.015_0"
    },
    {
      "mesh": 4,
      "name": "Bouda_Material.001_0"
    },
    {
      "children": [
        10,
        11,
        12,
        13
      ],
      "matrix": [
        0.028808550909161016,
        -5.037047431996589e-09,
        -2.518523608357736e-09,
        -0.0,
        -3.623538888503702e-08,
        -0.20724225044250172,
        -6.050711782033735e-12,
        -0.0,
        2.8968743689705886e-09,
        -9.679669450183076e-13,
        0.03313637897372233,
        -0.0,
        399.368896484375,
        281.65594482421875,
        -1.611188054084778e-05,
        1.0
      ],
      "name": "Hook"
    },
    {
      "mesh": 5,
      "name": "Hook_Material.011_0"
    },
    {
      "mesh": 6,
      "name": "Hook_Material.008_0"
    },
    {
      "mesh": 7,
      "name": "Hook_Material.010_0"
    },
    {
      "mesh": 8,
      "name": "Hook_Material.007_0"
    },
    {
      "children": [
        15,
        16
      ],
      "matrix": [
        1.7350196838378906,
        0.0,
        0.0,
        0.0,
        0.0,
        1.1780999898910522,
        0.0,
        0.0,
        0.0,
        0.0,
        1.0709998607635498,
        0.0,
        -134.31504821777344,
        142.330810546875,
        -1.5832483768463135e-06,
        1.0
      ],
      "name": "Ship.001"
    },
    {
      "mesh": 9,
      "name": "Ship.001_Material.001_0"
    },
    {
      "mesh": 10,
      "name": "Ship.001_Material.002_0"
    },
    {
      "children": [
        18
      ],
      "matrix": [
        1.7350196838378906,
        0.0,
        0.0,
        0.0,
        0.0,
        1.1780999898910522,
        0.0,
        0.0,
        0.0,
        0.0,
        1.0709998607635498,
        0.0,
        -134.31504821777344,
        142.330810546875,
        -1.5832483768463135e-06,
        1.0
      ],
      "name": "Ship.004"
    },
    {
      "mesh": 11,
      "name": "Ship.004_Material.003_0"
    },
    {
      "children": [
        20,
        21
      ],
      "matrix": [
        1.7350196838378906,
        0.0,
        0.0,
        0.0,
        0.0,
        1.1780999898910522,
        0.0,
        0.0,
        0.0,
        0.0,
        1.0709998607635498,
        0.0,
        -134.31504821777344,
        142.330810546875,
        -1.5832483768463135e-06,
        1.0
      ],
      "name": "Ship.005"
    },
    {
      "mesh": 12,
      "name": "Ship.005_Material.006_0"
    },
    {
      "mesh": 13,
      "name": "Ship.005_Material.004_0"
    },
    {
      "children": [
        23,
        24
      ],
      "matrix": [
        1.7350196838378906,
        0.0,
        0.0,
        0.0,
        0.0,
        1.1780999898910522,
        0.0,
        0.0,
        0.0,
        0.0,
        1.0709998607635498,
        0.0,
        -134.31504821777344,
        142.330810546875,
        -1.5832483768463135e-06,
        1.0
      ],
      "name": "Ship.006"
    },
    {
      "mesh": 14,
      "name": "Ship.006_Material.006_0"
    },
    {
      "mesh": 15,
      "name": "Ship.006_Material.004_0"
    },
    {
      "children": [
        26
      ],
      "matrix": [
        1.7350196838378906,
        0.0,
        0.0,
        0.0,
        0.0,
        1.1780999898910522,
        0.0,
        0.0,
        0.0,
        0.0,
        1.0709998607635498,
        0.0,
        -134.31504821777344,
        142.330810546875,
        -1.5832483768463135e-06,
        1.0
      ],
      "name": "Ship.007"
    },
    {
      "mesh": 16,
      "name": "Ship.007_Material.007_0"
    },
    {
      "children": [
        28
      ],
      "matrix": [
        1.7350196838378906,
        0.0,
        0.0,
        0.0,
        0.0,
        1.1780999898910522,
        0.0,
        0.0,
        0.0,
        0.0,
        1.0709998607635498,
        0.0,
        -134.31504821777344,
        142.330810546875,
        -1.5832483768463135e-06,
        1.0
      ],
      "name": "Ship.008"
    },
    {
      "mesh": 17,
      "name": "Ship.008_Material.007_0"
    },
    {
      "children": [
        30
      ],
      "matrix": [
        1.7350196838378906,
        0.0,
        0.0,
        0.0,
        0.0,
        1.1780999898910522,
        0.0,
        0.0,
        0.0,
        0.0,
        1.0709998607635498,
        0.0,
        -134.31504821777344,
        142.330810546875,
        -1.5832483768463135e-06,
        1.0
      ],
      "name": "Ship.009"
    },
    {
      "mesh": 18,
      "name": "Ship.009_Material.014_0"
    },
    {
      "children": [
        32
      ],
      "matrix": [
        1.7350196838378906,
        0.0,
        0.0,
        0.0,
        0.0,
        1.1780999898910522,
        0.0,
        0.0,
        0.0,
        0.0,
        1.0709998607635498,
        0.0,
        -134.31504821777344,
        142.330810546875,
        -1.5832483768463135e-06,
        1.0
      ],
      "name": "Ship.010"
    },
    {
      "mesh": 19,
      "name": "Ship.010_Material.014_0"
    },
    {
      "children": [
        34
      ],
      "matrix": [
        1.7350196838378906,
        0.0,
        0.0,
        0.0,
        0.0,
        1.1780999898910522,
        0.0,
        0.0,
        0.0,
        0.0,
        1.0709998607635498,
        0.0,
        -134.31504821777344,
        142.330810546875,
        -1.5832483768463135e-06,
        1.0
      ],
      "name": "Ship.011"
    },
    {
      "mesh": 20,
      "name": "Ship.011_Material.014_0"
    },
    {
      "children": [
        36
      ],
      "matrix": [
        1.7350196838378906,
        0.0,
        0.0,
        0.0,
        0.0,
        1.1780999898910522,
        0.0,
        0.0,
        0.0,
        0.0,
        1.0709998607635498,
        0.0,
        -134.31504821777344,
        142.330810546875,
        -1.5832483768463135e-06,
        1.0
      ],
      "name": "Ship.012"
    },
    {
      "mesh": 21,
      "name": "Ship.012_Material.014_0"
    },
    {
      "children": [
        38
      ],
      "matrix": [
        1.7350196838378906,
        0.0,
        0.0,
        0.0,
        0.0,
        1.1780999898910522,
        0.0,
        0.0,
        0.0,
        0.0,
        1.0709998607635498,
        0.0,
        -134.31504821777344,
        142.330810546875,
        -1.5832483768463135e-06,
        1.0
      ],
      "name": "Ship.013"
    },
    {
      "mesh": 22,
      "name": "Ship.013_Material.006_0"
    },
    {
      "children": [
        40
      ],
      "matrix": [
        1.7350196838378906,
        0.0,
        0.0,
        0.0,
        0.0,
        1.1780999898910522,
        0.0,
        0.0,
        0.0,
        0.0,
        1.0709998607635498,
        0.0,
        -134.31504821777344,
        142.330810546875,
        -1.5832483768463135e-06,
        1.0
      ],
      "name": "Ship.014"
    },
    {
      "mesh": 23,
      "name": "Ship.014_Material.014_0"
    },
    {
      "children": [
        42
      ],
      "matrix": [
        1.7350196838378906,
        0.0,
        0.0,
        0.0,
        0.0,
        1.1780999898910522,
        0.0,
        0.0,
        0.0,
        0.0,
        1.0709998607635498,
        0.0,
        -134.31504821777344,
        142.330810546875,
        -1.5832483768463135e-06,
        1.0
      ],
      "name": "Ship.015"
    },
    {
      "mesh": 24,
      "name": "Ship.015_Material.004_0"
    },
    {
      "children": [
        44
      ],
      "matrix": [
        1.7350196838378906,
        0.0,
        0.0,
        0.0,
        0.0,
        1.1780999898910522,
        0.0,
        0.0,
        0.0,
        0.0,
        1.0709998607635498,
        0.0,
        -134.31504821777344,
        142.330810546875,
        -1.5832483768463135e-06,
        1.0
      ],
      "name": "Ship.016"
    },
    {
      "mesh": 25,
      "name": "Ship.016_Material.003_0"
    },
    {
      "children": [
        46
      ],
      "matrix": [
        1.7350196838378906,
        0.0,
        0.0,
        0.0,
        0.0,
        1.1780999898910522,
        0.0,
        0.0,
        0.0,
        0.0,
        1.0709998607635498,
        0.0,
        -134.31504821777344,
        142.330810546875,
        -1.5832483768463135e-06,
        1.0
      ],
      "name": "Ship.017"
    },
    {
      "mesh": 26,
      "name": "Ship.017_Material.003_0"
    },
    {
      "children": [
        48
      ],
      "matrix": [
        1.7350196838378906,
        0.0,
        0.0,
        0.0,
        0.0,
        1.1780999898910522,
        0.0,
        0.0,
        0.0,
        0.0,
        1.0709998607635498,
        0.0,
        -134.31504821777344,
        142.330810546875,
        -1.5832483768463135e-06,
        1.0
      ],
      "name": "Ship.018"
    },
    {
      "mesh": 27,
      "name": "Ship.018_Material.014_0"
    },
    {
      "children": [
        50
      ],
      "matrix": [
        1.7350196838378906,
        0.0,
        0.0,
        0.0,
        0.0,
        1.1780999898910522,
        0.0,
        0.0,
        0.0,
        0.0,
        1.0709998607635498,
        0.0,
        -134.31504821777344,
        142.330810546875,
        -1.5832483768463135e-06,
        1.0
      ],
      "name": "Ship.019"
    },
    {
      "mesh": 28,
      "name": "Ship.019_Material.014_0"
    },
    {
      "children": [
        52
      ],
      "matrix": [
        1.7350196838378906,
        0.0,
        0.0,
        0.0,
        0.0,
        1.1780999898910522,
        0.0,
        0.0,
        0.0,
        0.0,
        1.0709998607635498,
        0.0,
        -134.31504821777344,
        142.330810546875,
        -1.5832483768463135e-06,
        1.0
      ],
      "name": "Ship.020"
    },
    {
      "mesh": 29,
      "name": "Ship.020_Material.014_0"
    },
    {
      "children": [
        54
      ],
      "matrix": [
        1.7350196838378906,
        0.0,
        0.0,
        0.0,
        0.0,
        1.1780999898910522,
        0.0,
        0.0,
        0.0,
        0.0,
        1.0709998607635498,
        0.0,
        -134.31504821777344,
        142.330810546875,
        -1.5832483768463135e-06,
        1.0
      ],
      "name": "Ship.021"
    },
    {
      "mesh": 30,
      "name": "Ship.021_Material.014_0"
    }
  ],
  "scene": 0,
  "scenes": [
    {
      "name": "Sketchfab_Scene",
      "nodes": [
        0
      ]
    }
  ]
}
